<?xml version="1.0" encoding="UTF-8" standalone="no"?>
<!DOCTYPE svg PUBLIC "-//W3C//DTD SVG 1.1//EN" "http://www.w3.org/Graphics/SVG/1.1/DTD/svg11.dtd">
<svg width="100%" height="100%" viewBox="0 0 1018 1018" version="1.1" xmlns="http://www.w3.org/2000/svg" xmlns:xlink="http://www.w3.org/1999/xlink" xml:space="preserve" xmlns:serif="http://www.serif.com/" style="fill-rule:evenodd;clip-rule:evenodd;stroke-linejoin:round;stroke-miterlimit:2;">
    <g transform="matrix(1,0,0,1,-3.342249,-3.342249)">
        <g transform="matrix(0.993472,-0,-0,0.993472,3.342249,3.342249)">
            <path d="M992.029,118.617C1012.5,139.088 1024,166.852 1024,195.802L1024,828.198C1024,857.148 1012.5,884.912 992.029,905.383C966.503,930.909 930.909,966.503 905.383,992.029C884.912,1012.5 857.148,1024 828.198,1024L195.802,1024C166.852,1024 139.088,1012.5 118.617,992.029C93.091,966.503 57.497,930.909 31.971,905.383C11.5,884.912 -0,857.148 -0,828.198L0,195.802C-0,166.852 11.5,139.088 31.971,118.617C57.497,93.091 93.091,57.497 118.617,31.971C139.088,11.5 166.852,-0 195.802,-0L828.198,0C857.148,-0 884.912,11.5 905.383,31.971C930.909,57.497 966.503,93.091 992.029,118.617ZM936.675,231.973C936.675,203.023 925.175,175.259 904.704,154.788C893.347,143.431 880.569,130.653 869.212,119.296C848.741,98.825 820.977,87.325 792.027,87.325C672.852,87.325 351.148,87.325 231.973,87.325C203.023,87.325 175.259,98.825 154.788,119.296C143.431,130.653 130.653,143.431 119.296,154.788C98.825,175.259 87.325,203.023 87.325,231.973C87.325,351.148 87.325,672.852 87.325,792.027C87.325,820.977 98.825,848.741 119.296,869.212C130.653,880.569 143.431,893.347 154.788,904.704C175.259,925.175 203.023,936.675 231.973,936.675C351.148,936.675 672.852,936.675 792.027,936.675C820.977,936.675 848.741,925.175 869.212,904.704C880.569,893.347 893.347,880.569 904.704,869.212C925.175,848.741 936.675,820.977 936.675,792.027C936.675,672.852 936.675,351.148 936.675,231.973Z" style="fill:rgb(228,54,0);"/>
        </g>
        <g transform="matrix(1.402673,0,0,1.518207,-235.896562,-248.308715)">
            <rect x="332.163" y="312.904" width="285.861" height="375.78" style="fill:rgb(235,235,235);fill-opacity:0;"/>
            <path d="M618.024,312.904L618.024,688.684L332.163,688.684L332.163,312.904L618.024,312.904ZM575.248,352.424L374.938,352.424L374.938,649.163L575.248,649.163L575.248,352.424Z" style="fill:rgb(228,54,0);"/>
        </g>
        <g transform="matrix(0,3.542484,-0.761993,0,1058.608553,-2038.662717)">
            <path d="M800.545,561.187L639.497,561.187L650.86,312.904L789.182,312.904L800.545,561.187Z" style="fill:rgb(235,235,235);fill-opacity:0;"/>
            <path d="M800.545,561.187L639.497,561.187L650.86,312.904L789.182,312.904L800.545,561.187ZM779.625,482.446L775.469,391.645L664.573,391.645L660.417,482.446L779.625,482.446Z" style="fill:rgb(228,54,0);"/>
        </g>
    </g>
</svg>
